<?xml version="1.0" standalone="no"?>
<!DOCTYPE svg PUBLIC "-//W3C//DTD SVG 20010904//EN"
 "http://www.w3.org/TR/2001/REC-SVG-20010904/DTD/svg10.dtd">
<svg version="1.0" xmlns="http://www.w3.org/2000/svg"
 width="273.000000pt" height="273.000000pt" viewBox="0 0 273.000000 273.000000"
 preserveAspectRatio="xMidYMid meet">

<g transform="translate(0.000000,273.000000) scale(0.100000,-0.100000)"
fill="#000000" stroke="none">
<path d="M854 2616 c5 -13 2 -17 -9 -12 -8 3 -15 1 -15 -4 0 -14 15 -19 29
-11 11 7 11 13 1 27 -11 18 -11 18 -6 0z"/>
<path d="M934 2615 c-10 -26 1 -35 13 -10 6 14 7 25 2 25 -5 0 -12 -7 -15 -15z"/>
<path d="M618 2491 c-35 -32 -80 -63 -100 -70 -20 -7 -41 -18 -47 -25 -9 -11
-3 -15 27 -20 32 -5 49 -17 93 -68 l54 -62 2 -336 c2 -309 1 -335 -15 -342
-10 -4 -2 -6 20 -5 l38 2 0 343 c0 297 -2 342 -15 342 -8 0 -15 5 -15 10 0 6
4 10 10 10 5 0 35 23 65 50 45 41 62 50 93 50 213 2 773 -2 992 -6 151 -2 279
-4 285 -4 5 0 4 -5 -3 -12 -14 -14 -16 -78 -3 -78 6 0 12 15 14 33 2 21 4 15
5 -21 1 -29 -3 -63 -9 -75 -9 -16 -9 -22 0 -25 7 -2 11 -29 10 -75 l-1 -72 -8
53 c-15 104 -22 65 -15 -88 4 -85 7 -201 8 -257 2 -110 9 -120 26 -33 l10 55
-2 -60 c-3 -71 -22 -101 -79 -129 l-40 -18 7 -52 c4 -28 9 -59 11 -69 3 -9 -1
-19 -8 -21 -7 -3 -118 -7 -247 -10 -128 -3 -236 -8 -239 -11 -3 -3 24 -5 61
-5 66 0 95 -13 57 -25 -11 -4 -17 -11 -14 -17 4 -5 -4 -4 -17 2 -17 10 -24 10
-27 1 -2 -6 -8 -11 -13 -11 -6 0 -7 5 -4 10 3 6 -1 10 -10 10 -9 0 -13 -4 -10
-10 3 -5 1 -10 -4 -10 -6 0 -11 5 -11 10 0 6 -7 10 -15 10 -8 0 -15 -5 -15
-11 0 -8 -6 -7 -17 2 -13 11 -17 11 -20 2 -3 -7 -12 -13 -21 -13 -16 -1 -16
-2 0 -13 14 -12 12 -13 -20 -12 -20 1 -49 5 -65 9 -22 7 -25 11 -16 22 9 11 8
14 -1 14 -7 0 -18 -7 -24 -15 -9 -12 -43 -16 -176 -19 -91 -2 -178 -7 -195
-11 -69 -16 -94 -27 -89 -39 6 -16 -56 -26 -152 -26 -48 0 -64 4 -64 14 0 11
18 12 90 8 84 -4 90 -3 89 14 0 11 -3 13 -6 7 -5 -13 -35 -18 -46 -7 -8 8
-111 17 -172 16 -41 -2 -47 0 -31 9 15 9 16 13 5 20 -10 6 -11 9 -1 9 27 0 10
18 -23 23 -55 9 -115 39 -115 57 0 9 -15 21 -36 29 -28 10 -41 23 -55 56 -11
24 -16 51 -13 60 6 14 -1 16 -47 13 l-54 -3 -3 -40 c-8 -98 50 -256 142 -385
l47 -65 -196 -3 -195 -2 0 -25 0 -25 241 0 241 0 31 -34 c100 -108 96 -103 89
-133 -4 -15 -6 -168 -4 -340 l3 -311 24 -16 25 -16 0 363 0 364 31 32 c21 22
36 30 47 26 50 -21 151 -26 722 -33 l624 -7 39 -69 c22 -39 40 -80 40 -93 0
-12 3 -20 8 -17 5 3 10 2 10 -3 2 -8 7 -260 8 -382 l1 -64 25 23 c24 23 25 26
27 207 l3 185 27 -21 c14 -12 46 -24 70 -27 l44 -6 17 73 c10 41 21 112 25
158 4 56 12 86 20 89 7 2 16 -5 19 -16 5 -20 5 -20 36 -1 18 10 50 19 73 19
45 0 78 21 88 55 6 19 2 20 -109 16 -110 -3 -115 -2 -115 17 0 11 6 23 13 25
9 4 9 8 -1 15 -10 6 -15 43 -18 118 -13 334 -45 751 -70 914 -9 58 -18 116
-20 129 -3 31 -69 97 -174 177 -56 42 -88 60 -94 54 -7 -7 -6 -17 2 -30 8 -14
9 -27 2 -45 l-10 -26 -275 2 c-151 1 -275 4 -275 8 0 3 -36 5 -81 3 -56 -3
-79 0 -74 7 3 6 -1 11 -10 11 -9 0 -13 -4 -10 -10 9 -15 -530 -13 -557 1 -26
14 -58 48 -89 94 -13 19 -29 35 -36 35 -7 0 -41 -26 -75 -59z m1646 -556 c12
-150 17 -286 10 -297 -17 -27 -24 32 -24 206 0 104 2 187 4 185 2 -2 7 -44 10
-94z m-137 8 c-2 -16 -4 -5 -4 22 0 28 2 40 4 28 2 -13 2 -35 0 -50z m-43
-498 c-5 -11 -2 -13 10 -9 14 5 14 2 4 -27 l-11 -33 -12 34 c-13 36 -11 50 5
50 5 0 7 -7 4 -15z m-1514 -100 c0 -2 -10 -10 -22 -16 -21 -11 -22 -11 -9 4
13 16 31 23 31 12z m1136 -15 c8 0 14 -4 14 -8 0 -5 -13 -7 -30 -4 -16 2 -30
9 -30 14 0 6 7 7 16 4 9 -3 22 -6 30 -6z m357 -30 c3 -19 8 -66 11 -105 7 -88
-8 -25 -19 80 -7 71 -1 89 8 25z m-1021 -12 c-7 -7 -12 -8 -12 -2 0 14 12 26
19 19 2 -3 -1 -11 -7 -17z m-452 -8 c0 -5 -4 -10 -10 -10 -5 0 -10 5 -10 10 0
6 5 10 10 10 6 0 10 -4 10 -10z m1530 -285 c0 -5 -5 -3 -10 5 -5 8 -10 20 -10
25 0 6 5 3 10 -5 5 -8 10 -19 10 -25z m408 8 c-10 -2 -26 -2 -35 0 -10 3 -2 5
17 5 19 0 27 -2 18 -5z"/>
<path d="M1038 2473 c7 -3 16 -2 19 1 4 3 -2 6 -13 5 -11 0 -14 -3 -6 -6z"/>
<path d="M1328 2423 c7 -3 16 -2 19 1 4 3 -2 6 -13 5 -11 0 -14 -3 -6 -6z"/>
<path d="M787 2333 c-4 -3 -7 -11 -7 -17 0 -6 5 -5 12 2 6 6 9 14 7 17 -3 3
-9 2 -12 -2z"/>
<path d="M850 2300 c0 -5 5 -10 10 -10 6 0 10 5 10 10 0 6 -4 10 -10 10 -5 0
-10 -4 -10 -10z"/>
<path d="M790 2296 c0 -2 7 -6 15 -10 8 -3 15 -1 15 4 0 6 -7 10 -15 10 -8 0
-15 -2 -15 -4z"/>
<path d="M748 2283 c6 -2 18 -2 25 0 6 3 1 5 -13 5 -14 0 -19 -2 -12 -5z"/>
<path d="M2616 1695 c-3 -9 0 -15 9 -15 9 0 12 6 9 15 -4 8 -7 15 -9 15 -2 0
-5 -7 -9 -15z"/>
<path d="M370 1570 c20 -13 43 -13 35 0 -3 6 -16 10 -28 10 -18 0 -19 -2 -7
-10z"/>
<path d="M425 1570 c-4 -6 14 -10 46 -10 61 0 61 5 2 14 -24 3 -44 2 -48 -4z"/>
<path d="M958 1573 c7 -3 16 -2 19 1 4 3 -2 6 -13 5 -11 0 -14 -3 -6 -6z"/>
<path d="M1008 1573 c7 -3 16 -2 19 1 4 3 -2 6 -13 5 -11 0 -14 -3 -6 -6z"/>
<path d="M1118 1573 c12 -2 32 -2 45 0 12 2 2 4 -23 4 -25 0 -35 -2 -22 -4z"/>
<path d="M1283 1573 c15 -2 37 -2 50 0 12 2 0 4 -28 4 -27 0 -38 -2 -22 -4z"/>
<path d="M1483 1573 c26 -2 67 -2 90 0 23 2 2 3 -48 3 -49 0 -68 -1 -42 -3z"/>
<path d="M1643 1573 c9 -2 25 -2 35 0 9 3 1 5 -18 5 -19 0 -27 -2 -17 -5z"/>
<path d="M793 1563 c15 -2 37 -2 50 0 12 2 0 4 -28 4 -27 0 -38 -2 -22 -4z"/>
<path d="M1275 1380 c3 -5 19 -10 36 -10 16 0 29 5 29 10 0 6 -16 10 -36 10
-21 0 -33 -4 -29 -10z"/>
<path d="M1385 1370 c19 -21 65 -28 65 -10 0 6 -14 10 -31 10 -17 0 -28 4 -24
10 3 6 -2 10 -11 10 -16 0 -16 -1 1 -20z"/>
<path d="M958 1333 c7 -3 16 -2 19 1 4 3 -2 6 -13 5 -11 0 -14 -3 -6 -6z"/>
<path d="M2655 1309 c-11 -16 -1 -19 13 -3 7 8 8 14 3 14 -5 0 -13 -5 -16 -11z"/>
<path d="M2638 1103 c7 -3 16 -2 19 1 4 3 -2 6 -13 5 -11 0 -14 -3 -6 -6z"/>
<path d="M2345 550 c-3 -5 -1 -10 4 -10 6 0 11 5 11 10 0 6 -2 10 -4 10 -3 0
-8 -4 -11 -10z"/>
<path d="M797 403 c-4 -3 -7 -11 -7 -17 0 -6 5 -5 12 2 6 6 9 14 7 17 -3 3 -9
2 -12 -2z"/>
<path d="M857 363 c-4 -3 -7 -15 -7 -25 0 -17 2 -18 15 -4 8 8 15 19 15 25 0
12 -13 15 -23 4z"/>
<path d="M872 318 c-5 -7 -8 -28 -6 -46 3 -27 -1 -35 -21 -44 -28 -12 -33 -28
-10 -28 31 0 55 37 53 85 -3 51 -2 49 -16 33z"/>
<path d="M951 247 c-17 -17 -13 -27 8 -27 25 0 32 12 16 27 -9 8 -15 9 -24 0z"/>
<path d="M980 196 c0 -2 7 -6 15 -10 8 -3 15 -1 15 4 0 6 -7 10 -15 10 -8 0
-15 -2 -15 -4z"/>
<path d="M833 175 c-14 -15 -10 -55 8 -66 18 -11 184 -66 227 -74 23 -5 32 -3
32 7 0 18 -15 40 -26 39 -5 -1 -9 5 -9 12 0 7 -14 12 -37 11 -21 -1 -35 2 -32
7 3 5 12 9 20 9 8 0 14 5 14 11 0 6 -12 9 -27 6 -16 -2 -22 -2 -15 0 6 3 12 8
12 13 0 5 10 11 23 13 12 2 -3 5 -33 6 -30 1 -76 6 -101 10 -29 5 -49 3 -56
-4z"/>
<path d="M770 160 c-13 -8 -13 -10 2 -10 9 0 20 5 23 10 8 13 -5 13 -25 0z"/>
<path d="M1146 57 c-18 -15 -25 -26 -18 -30 6 -4 18 1 28 10 17 17 17 17 11 1
-3 -10 -2 -20 2 -23 11 -6 36 23 28 32 -4 3 -2 12 4 20 20 23 -23 15 -55 -10z"/>
</g>
</svg>
